<?xml version="1.0" standalone="no"?><!DOCTYPE svg PUBLIC "-//W3C//DTD SVG 1.1//EN" "http://www.w3.org/Graphics/SVG/1.1/DTD/svg11.dtd"><svg class="icon" width="18px" height="18.00px" viewBox="0 0 1024 1024" version="1.1" xmlns="http://www.w3.org/2000/svg"><path d="M385.621684 772.431427" fill="#559ff0" /><path d="M903.778918 634.196063c-19.642362 0-35.5691-16.021905-35.5691-35.782971l0.912789-210.005968c0-39.526225-30.94171-70.225411-70.229504-70.225411L272.204565 318.181713l123.214253 111.792109-50.299593 50.608631L131.75272 283.067984 317.601498 82.675978l49.656957 49.656957-106.311281 115.623367 537.945929 0c78.57559 0 140.454916 56.703443 140.454916 135.756917l0 214.700897C939.348018 618.174158 923.42435 634.196063 903.778918 634.196063zM166.865425 423.51983 166.865425 493.745241l0 140.450822c0 38.782282 31.44006 70.225411 70.229504 70.225411l547.156708 0-115.52206-115.623367 49.656957-49.656957 175.560458 175.564551L718.386534 904.814504l-49.656957-49.656957 81.749886-80.510662L237.09493 774.646885c-77.574796 0-140.454916-62.883189-140.454916-140.451846L96.640014 493.745241l0-35.112706 0-35.112706c0-19.392676 15.72003-35.112706 35.109636-35.112706C151.145395 388.407124 166.865425 404.127154 166.865425 423.51983z" fill="#559ff0" /></svg>